<?xml version="1.0" standalone="no"?>
<!DOCTYPE svg PUBLIC "-//W3C//DTD SVG 20010904//EN"
 "http://www.w3.org/TR/2001/REC-SVG-20010904/DTD/svg10.dtd">
<svg version="1.0" xmlns="http://www.w3.org/2000/svg"
 width="500.000000pt" height="500.000000pt" viewBox="0 0 500.000000 500.000000"
 preserveAspectRatio="xMidYMid meet">

<g transform="translate(0.000000,500.000000) scale(0.100000,-0.100000)"
fill="#000000" stroke="none">
<path d="M2370 4043 c-54 -20 -37 -30 25 -14 60 15 175 14 221 -3 22 -7 296
-137 609 -288 897 -434 843 -403 892 -493 l28 -50 3 -307 3 -308 -25 0 -26 0
0 293 c0 165 -4 308 -10 328 -6 20 -28 57 -49 81 -36 41 -98 72 -743 383
l-703 339 -85 3 c-71 3 -82 1 -66 -9 11 -7 27 -20 37 -29 9 -9 40 -22 67 -28
51 -10 1342 -629 1415 -677 72 -48 77 -69 77 -396 l0 -288 -30 0 -30 0 0 159
0 159 -66 31 c-36 17 -67 31 -69 31 -1 0 -1 -27 0 -60 2 -32 0 -58 -4 -57 -3
1 -6 -2 -6 -8 0 -5 3 -9 6 -8 3 1 6 -13 6 -32 0 -19 -3 -33 -6 -32 -3 1 -6 -2
-6 -8 0 -5 3 -9 8 -7 4 1 7 -8 7 -19 0 -17 -3 -19 -13 -10 -8 6 -16 9 -19 6
-2 -3 -5 11 -5 29 0 19 3 34 6 33 3 -1 6 3 6 8 0 6 -3 9 -6 8 -3 -1 -6 13 -6
32 0 19 3 33 6 32 3 -1 6 3 6 8 0 6 -4 9 -8 7 -5 -1 -7 3 -4 10 2 7 9 12 14
11 5 -1 10 8 10 20 2 22 2 22 -18 -2 -17 -21 -19 -40 -19 -183 0 -103 -3 -157
-10 -153 -6 4 -10 99 -10 253 l0 247 -32 46 -31 46 -99 -45 -98 -45 0 -254 0
-253 -146 0 c-129 0 -145 2 -140 16 3 9 6 18 6 21 0 3 6 1 13 -4 6 -6 20 -13
31 -17 14 -5 17 -3 12 10 -5 14 -4 15 9 4 38 -32 75 33 75 132 0 36 -6 75 -15
92 -13 25 -13 27 1 22 8 -3 12 -2 9 4 -9 15 -26 12 -49 -7 -18 -15 -19 -16 -8
-1 11 14 10 17 -5 21 -10 3 -1 5 19 6 28 1 41 -4 50 -19 18 -28 38 -25 38 5 0
22 -4 24 -57 28 l-58 3 58 2 c31 1 57 7 57 12 0 6 -11 10 -25 10 -14 0 -25 4
-25 9 0 5 12 6 28 2 23 -6 27 -13 30 -49 2 -33 7 -42 21 -42 14 0 20 11 25 46
10 78 8 97 -10 90 -13 -5 -14 -2 -8 11 27 62 9 159 -35 183 -11 5 -21 19 -23
31 -2 18 -50 39 -300 134 -163 62 -307 116 -320 120 l-23 7 23 -24 c12 -13 22
-29 22 -35 0 -12 47 -31 173 -73 38 -12 67 -24 64 -26 -2 -2 -43 9 -91 26 -86
29 -88 29 -72 7 9 -12 21 -31 27 -42 8 -16 69 -38 282 -100 l272 -80 3 -43 c1
-23 0 -42 -4 -42 -4 0 -122 25 -261 55 -140 30 -256 55 -259 55 -6 0 -5 66 2
72 3 3 80 -14 172 -38 92 -24 171 -43 176 -41 5 2 -38 15 -95 30 -241 63 -258
69 -262 85 -3 10 -5 -5 -6 -33 -1 -27 -10 -69 -21 -92 -23 -51 -35 -58 -14 -8
31 76 10 178 -48 233 l-25 23 -7 -153 c-3 -84 -10 -171 -15 -194 -7 -35 -5
-43 11 -53 21 -13 184 -35 204 -27 7 3 15 -2 18 -11 6 -14 -7 -15 -101 -10
-75 4 -91 3 -53 -2 92 -14 207 -21 185 -11 -14 6 -2 8 40 8 53 -1 56 -2 20 -7
l-40 -6 40 -8 c22 -4 65 -7 96 -7 l56 0 -1 -44 c-1 -24 -5 -48 -10 -53 -5 -4
-6 3 -2 19 3 16 1 30 -5 34 -8 5 -8 9 1 14 8 5 8 9 -4 13 -8 3 -27 -4 -43 -16
l-28 -21 20 23 19 22 -68 -3 c-62 -3 -71 -6 -90 -31 -18 -25 -21 -40 -18 -120
2 -51 9 -104 17 -119 l13 -28 -127 0 -127 0 -17 -30 -18 -30 855 0 856 0 0 30
0 30 -159 0 -160 0 -3 308 c-3 290 -4 310 -24 353 -45 96 -60 105 -634 383
-294 142 -616 298 -715 345 l-180 86 -100 2 c-73 2 -112 -2 -145 -14z m1330
-903 c0 -5 -36 -28 -80 -50 -55 -28 -80 -36 -80 -27 0 10 119 75 158 86 1 1 2
-3 2 -9z m69 -75 c0 -5 -13 6 -29 25 -17 19 -30 39 -30 45 0 5 14 -6 30 -25
16 -19 29 -39 29 -45z m-590 0 c130 -25 245 -50 256 -56 17 -8 15 -9 -10 -5
-119 16 -515 92 -515 98 0 13 24 10 269 -37z m521 35 c0 -5 -36 -28 -80 -50
-51 -26 -80 -36 -80 -27 0 7 33 29 73 49 79 40 87 43 87 28z m70 -75 c-1 -5
-12 4 -26 20 -26 30 -24 22 5 -24 10 -15 16 -50 17 -90 l1 -65 -29 34 c-15 19
-28 39 -28 45 1 5 12 -3 26 -20 26 -30 24 -22 -5 24 -10 15 -16 50 -17 90 l-1
65 29 -34 c15 -19 28 -39 28 -45z m-70 35 c0 -6 -34 -26 -76 -45 -86 -39 -84
-39 -84 -25 0 5 33 25 73 44 81 38 87 40 87 26z m0 -38 c0 -7 -142 -82 -155
-82 -34 0 106 88 143 90 6 0 12 -4 12 -8z m0 -40 c0 -9 -12 -15 -107 -58 -77
-34 -65 -10 15 30 68 36 92 43 92 28z m-610 -20 c0 -4 -16 -6 -35 -4 -19 2
-35 6 -35 8 0 2 16 4 35 4 19 0 35 -4 35 -8z m90 -10 c0 -4 -18 -6 -40 -4 -22
2 -40 6 -40 8 0 2 18 4 40 4 22 0 40 -3 40 -8z m520 -2 c0 -5 -36 -28 -80 -50
-55 -28 -80 -36 -80 -27 0 8 35 30 78 50 90 42 82 40 82 27z m-447 -7 c-13 -2
-33 -2 -45 0 -13 2 -3 4 22 4 25 0 35 -2 23 -4z m95 -10 c-10 -2 -28 -2 -40 0
-13 2 -5 4 17 4 22 1 32 -1 23 -4z m572 -18 c35 -18 50 -31 50 -45 0 -25 -2
-25 -51 1 -23 11 -43 19 -45 16 -2 -2 19 -14 46 -27 28 -13 50 -27 50 -32 0
-4 -24 4 -54 19 -38 18 -54 32 -53 45 2 22 1 22 38 2 17 -8 33 -14 35 -11 2 2
-14 12 -36 22 -22 10 -40 22 -40 27 0 12 6 10 60 -17z m-220 -5 c0 -5 -36 -28
-80 -50 -51 -26 -80 -36 -80 -27 0 7 33 29 73 49 79 40 87 43 87 28z m-437 -7
c-18 -2 -48 -2 -65 0 -18 2 -4 4 32 4 36 0 50 -2 33 -4z m507 -68 c-1 -5 -12
4 -26 20 -26 30 -24 22 5 -24 10 -15 16 -50 17 -90 l1 -65 -29 34 c-15 19 -28
39 -28 45 1 5 12 -3 26 -20 26 -30 24 -22 -5 24 -10 15 -16 50 -17 90 l-1 65
29 -34 c15 -19 28 -39 28 -45z m-70 35 c0 -7 -142 -80 -156 -80 -2 0 -4 5 -4
10 0 6 33 26 73 44 80 38 87 40 87 26z m223 -37 c29 -15 46 -28 38 -31 -11 -4
-11 -6 0 -13 7 -4 11 -11 7 -14 -3 -4 -25 3 -48 15 -23 12 -44 20 -46 17 -2
-2 18 -14 45 -27 35 -16 49 -28 48 -41 -1 -14 -7 -18 -22 -14 -17 4 -17 3 3
-6 12 -7 22 -16 22 -21 0 -12 -6 -10 -62 18 -34 17 -47 28 -38 34 10 6 9 9 -1
12 -8 3 -11 8 -7 12 3 4 25 -2 48 -14 23 -12 44 -20 46 -17 2 2 -18 14 -45 27
-35 16 -49 28 -48 42 1 11 7 16 14 13 36 -14 44 -14 16 1 -18 10 -33 21 -33
26 0 12 6 10 63 -19z m-223 -1 c0 -7 -142 -82 -155 -82 -34 0 106 88 143 90 6
0 12 -4 12 -8z m-483 -14 c-9 -7 -24 -22 -33 -33 -8 -11 -12 -13 -8 -5 11 24
36 50 47 50 6 0 3 -6 -6 -12z m109 -16 c-17 -16 -18 -16 -5 5 7 12 15 20 18
17 3 -2 -3 -12 -13 -22z m372 -17 c-2 -2 -39 -20 -81 -39 -48 -22 -77 -31 -77
-23 1 15 154 87 159 75 1 -5 1 -11 -1 -13z m2 -25 c0 -5 -36 -28 -80 -50 -54
-27 -80 -36 -80 -27 0 8 35 30 78 50 88 42 82 40 82 27z m-586 -168 c-1 -2 -7
13 -14 33 -8 24 -9 52 -4 83 8 47 8 46 14 -33 3 -44 5 -81 4 -83z m238 122
c-5 -11 -7 -24 -5 -31 5 -15 -14 -26 -22 -13 -4 6 1 22 9 35 10 15 12 25 6 25
-6 0 -8 5 -4 11 11 19 27 -7 16 -27z m-114 -8 c3 -27 -12 -56 -29 -56 -10 0
-12 50 -3 75 9 24 29 13 32 -19z m462 14 c0 -10 -131 -80 -150 -80 -26 0 -4
19 63 52 79 40 87 43 87 28z m65 -98 c-2 -42 -8 -46 -30 -22 -12 13 -19 39
-21 76 l-3 57 28 -39 c20 -27 28 -49 26 -72z m202 36 c-1 -12 -6 -16 -17 -12
-36 14 -43 13 -13 -2 19 -10 31 -24 30 -35 -1 -22 -40 -33 -67 -19 -24 13 -33
13 -25 0 3 -5 1 -10 -4 -10 -6 0 -11 9 -11 20 0 24 3 24 41 4 17 -8 33 -14 35
-11 2 2 -14 12 -36 22 -22 10 -40 22 -40 27 0 4 18 -1 40 -12 21 -11 43 -20
47 -20 4 1 -13 12 -39 26 -33 17 -48 31 -48 44 0 25 2 25 51 -1 23 -11 43 -19
45 -16 2 2 -19 14 -46 27 -28 13 -50 27 -50 32 0 4 24 -4 54 -19 39 -19 54
-32 53 -45z m-790 -60 c9 -11 11 -18 5 -18 -20 0 -32 37 -30 92 l2 53 3 -55
c3 -31 11 -62 20 -72z m669 43 c0 -48 -3 -58 -15 -56 -12 1 -16 15 -17 61 -1
67 3 81 20 64 6 -6 11 -37 12 -69z m-659 32 c-3 -10 -5 -4 -5 12 0 17 2 24 5
18 2 -7 2 -21 0 -30z m513 8 c0 -7 -142 -81 -156 -81 -2 0 -4 5 -4 11 0 5 33
25 73 44 79 37 87 39 87 26z m-413 -43 c-3 -7 -5 -2 -5 12 0 14 2 19 5 13 2
-7 2 -19 0 -25z m413 3 c0 -11 -112 -61 -136 -61 -11 1 10 16 46 35 66 35 90
42 90 26z m-2 -47 c-3 -2 -20 -6 -39 -9 l-34 -6 35 20 c19 10 37 15 39 10 1
-6 1 -12 -1 -15z m32 -5 c0 -6 -4 -7 -10 -4 -5 3 -10 11 -10 16 0 6 5 7 10 4
6 -3 10 -11 10 -16z"/>
<path d="M3730 3011 c5 -11 15 -23 21 -27 6 -3 3 5 -6 20 -20 30 -30 35 -15 7z"/>
<path d="M3735 2966 c10 -14 19 -26 22 -26 7 0 -17 39 -28 46 -6 3 -3 -5 6
-20z"/>
<path d="M3730 2821 c5 -11 15 -23 21 -27 6 -3 3 5 -6 20 -20 30 -30 35 -15 7z"/>
<path d="M3735 2776 c10 -14 19 -26 22 -26 7 0 -17 39 -28 46 -6 3 -3 -5 6
-20z"/>
<path d="M3215 2710 c-3 -5 -1 -10 4 -10 6 0 11 5 11 10 0 6 -2 10 -4 10 -3 0
-8 -4 -11 -10z"/>
<path d="M3215 2680 c-3 -5 -1 -10 4 -10 6 0 11 5 11 10 0 6 -2 10 -4 10 -3 0
-8 -4 -11 -10z"/>
<path d="M3730 2671 c5 -11 15 -23 21 -27 6 -3 3 5 -6 20 -20 30 -30 35 -15 7z"/>
<path d="M3825 2681 c-3 -5 -2 -12 3 -15 5 -3 9 1 9 9 0 17 -3 19 -12 6z"/>
<path d="M3823 2635 c0 -8 4 -12 9 -9 5 3 6 10 3 15 -9 13 -12 11 -12 -6z"/>
<path d="M2191 3952 c-17 -14 -23 -26 -19 -45 4 -22 0 -26 -35 -37 -21 -6 -36
-14 -33 -17 9 -10 -24 -35 -49 -37 -19 -1 -21 -4 -12 -15 10 -12 9 -12 -10 -3
-28 15 -36 15 -27 0 5 -8 2 -9 -11 -4 -16 6 -16 4 -4 -10 13 -16 12 -16 -8 -6
-23 13 -57 6 -47 -9 3 -5 -3 -9 -14 -9 -29 0 -239 -155 -239 -177 0 -22 25
-53 44 -53 8 0 60 35 116 79 83 64 118 83 187 106 113 38 132 35 195 -25 32
-29 68 -53 91 -59 21 -5 57 -15 79 -20 22 -6 101 -29 177 -51 132 -40 137 -41
157 -23 18 15 21 29 21 87 0 54 3 67 12 58 7 -7 21 -12 33 -12 30 0 45 19 45
56 0 37 -26 52 -105 58 -56 4 -105 21 -105 35 0 15 -71 35 -79 23 -4 -7 -25
-4 -61 9 -30 10 -64 19 -77 19 -22 0 -40 16 -29 28 4 3 24 1 46 -5 22 -5 40
-9 40 -7 0 2 -5 14 -11 28 -15 33 -56 46 -159 52 -73 4 -88 3 -109 -14z m64
-33 c0 -22 -5 -35 -15 -37 -12 -2 -15 6 -12 38 5 50 27 49 27 -1z m25 -69 c-8
-5 -23 -10 -32 -10 -28 0 -48 -12 -49 -29 0 -12 -2 -12 -9 4 -15 35 -11 41 38
51 49 10 79 1 52 -16z m-120 -11 c16 -30 8 -31 -13 -3 -10 13 -13 24 -8 24 6
0 15 -9 21 -21z m-15 -19 c3 -5 -1 -10 -9 -10 -9 0 -16 5 -16 10 0 6 4 10 9
10 6 0 13 -4 16 -10z m450 -34 l90 -33 18 -59 c9 -32 15 -64 13 -71 -7 -17
-42 -16 -102 3 -87 28 -104 36 -104 50 0 23 29 16 90 -22 33 -20 68 -34 80
-32 19 2 9 13 -56 59 -95 67 -106 72 -132 53 -17 -12 -21 -12 -26 2 -5 14 1
58 11 77 7 12 24 8 118 -27z m-211 -111 c70 -20 68 -32 -4 -15 -37 9 -65 25
-104 61 -29 27 -56 46 -60 42 -3 -3 -6 4 -6 18 0 21 6 18 58 -33 45 -44 69
-59 116 -73z m-454 70 c0 -9 -187 -155 -199 -155 -9 0 -9 -5 -1 -21 7 -11 9
-23 7 -26 -3 -2 -8 5 -12 16 -3 12 -11 21 -16 21 -15 0 8 20 111 99 83 64 110
80 110 66z m894 -24 c3 -4 0 -15 -7 -24 -15 -21 -43 -6 -34 17 7 17 32 22 41
7z"/>
<path d="M1835 3789 c-148 -71 -402 -194 -564 -272 -233 -112 -306 -152 -347
-190 -87 -79 -88 -85 -92 -439 l-3 -308 -160 0 -159 0 0 -30 0 -30 994 0 c886
0 995 -2 1006 -16 35 -41 129 -55 186 -28 44 21 89 87 98 145 14 89 -46 188
-115 190 -29 0 -31 2 -14 10 16 7 12 8 -17 6 l-38 -3 27 28 c15 15 35 30 45
34 21 6 24 30 6 37 -10 4 -10 6 0 6 21 2 13 41 -10 50 -16 6 -4 7 33 4 50 -5
58 -3 63 14 7 22 26 343 22 370 -2 10 -11 19 -22 20 -18 3 -18 2 1 -6 13 -6
15 -10 5 -10 -19 1 -89 27 -73 28 6 1 20 4 30 7 15 5 15 4 3 -5 -13 -9 -13
-11 0 -11 8 0 21 4 29 9 21 14 1 34 -59 60 -109 47 -171 55 -415 56 -260 0
-271 -3 -301 -73 -21 -48 -64 -218 -63 -246 1 -19 2 -18 9 4 7 23 8 24 9 3 1
-18 8 -22 44 -26 41 -3 40 -4 -10 -5 -52 -2 -76 -15 -48 -26 10 -3 15 -17 14
-38 l-2 -33 -7 35 c-4 21 -8 27 -9 15 -2 -20 -3 -20 -10 -1 -7 18 -8 18 -14
-5 -9 -34 -9 -119 1 -119 5 0 17 -7 28 -15 11 -9 13 -13 4 -10 -30 10 -42 -12
-51 -91 -6 -60 -6 -82 4 -91 7 -7 69 -24 137 -38 69 -14 135 -28 147 -30 19
-4 22 0 26 32 l4 38 1 -36 2 -37 75 -11 c130 -19 129 -19 137 97 5 68 4 72
-16 73 -18 1 -18 2 -3 6 18 5 18 6 1 24 -21 23 -99 27 -107 5 -6 -15 -67 -28
-67 -14 0 14 -32 9 -51 -8 -26 -24 -125 -9 -154 22 -33 36 -44 29 -48 -28 l-3
-53 -2 53 c-1 28 -6 52 -12 52 -5 0 -10 4 -10 10 0 5 6 7 13 5 17 -7 311 -45
314 -41 2 2 5 12 7 22 13 65 51 166 66 174 9 5 34 7 54 3 22 -3 36 -2 36 5 0
6 -5 12 -12 14 -7 3 -6 7 5 11 14 5 17 0 17 -31 0 -24 -3 -32 -9 -24 -5 9 -23
12 -51 10 l-43 -3 -25 -68 c-30 -80 -26 -87 51 -87 35 0 47 4 47 15 0 9 -10
15 -22 16 -21 1 -21 2 -3 6 11 3 23 10 27 17 6 8 8 8 8 -1 0 -6 10 -14 23 -16
l22 -4 -22 -2 c-34 -2 -28 -28 8 -35 59 -12 98 -6 135 19 20 14 42 25 48 25 6
0 2 -6 -9 -12 -11 -6 -29 -19 -40 -29 -15 -13 -39 -18 -98 -20 -55 -1 -74 -5
-68 -13 5 -6 11 -27 14 -46 4 -30 4 -29 3 7 -1 22 2 39 7 36 9 -5 9 -65 0
-118 -6 -37 -7 -38 -14 -15 -8 24 -8 24 -7 -5 1 -91 3 -88 -52 -80 -47 6 -53
5 -86 -24 -27 -25 -41 -30 -62 -25 -42 10 -71 32 -78 58 -5 23 -31 42 -42 32
-9 -9 19 -71 46 -101 l27 -30 -33 30 c-18 16 -38 46 -44 67 -14 46 -32 50 -24
6 4 -30 4 -29 -6 5 -8 26 -17 37 -31 37 -17 0 -18 -5 -12 -37 9 -49 30 -88 57
-108 21 -14 7 -15 -187 -13 l-210 3 -5 170 -5 169 -69 30 -68 31 -24 -30 c-23
-29 -24 -36 -24 -197 0 -100 -4 -169 -10 -173 -7 -4 -10 85 -10 261 l0 268
-37 53 c-20 29 -40 53 -45 53 -5 0 -53 -23 -108 -50 l-100 -50 0 -270 c0 -173
-4 -270 -10 -270 -6 0 -10 50 -10 129 l0 128 -57 26 c-58 26 -58 26 -78 6 -17
-17 -21 -37 -25 -152 -5 -124 -6 -132 -25 -132 -19 0 -20 8 -23 273 -3 305 2
340 53 387 18 17 161 92 323 170 l290 140 4 38 c2 20 1 36 -3 35 -4 -2 -143
-68 -310 -148 -333 -159 -382 -192 -407 -276 -8 -28 -12 -132 -12 -333 l0
-292 -22 3 -23 3 0 305 c0 294 1 306 22 345 47 87 70 101 658 385 499 242 613
301 580 300 -6 0 -131 -59 -280 -131z m630 -341 c-20 -98 -58 -215 -74 -228
-9 -8 -23 -24 -30 -35 -10 -15 -11 -16 -7 -2 4 11 0 17 -12 17 -38 0 -310 20
-350 26 l-44 5 8 42 c9 59 54 191 68 199 6 4 109 8 229 8 l219 0 -7 -32z m75
8 c0 -2 -9 -6 -20 -9 -11 -3 -18 -1 -14 4 5 9 34 13 34 5z m66 -47 c38 -12 74
-25 80 -30 13 -11 7 -147 -7 -165 -6 -8 -27 -8 -66 -2 -48 7 -60 6 -69 -7 -14
-19 -53 -20 -60 -1 -3 8 2 59 10 114 9 55 16 102 16 106 0 11 26 7 96 -15z
m-119 -46 c-3 -10 -5 -4 -5 12 0 17 2 24 5 18 2 -7 2 -21 0 -30z m263 -4 c3
-4 3 -42 0 -85 -5 -74 -6 -79 -27 -77 -19 2 -22 -3 -26 -40 -2 -23 -3 -8 0 33
7 152 14 189 32 182 9 -3 18 -9 21 -13z m-273 -56 c-3 -10 -5 -4 -5 12 0 17 2
24 5 18 2 -7 2 -21 0 -30z m-10 -60 c-3 -10 -5 -4 -5 12 0 17 2 24 5 18 2 -7
2 -21 0 -30z m-10 -70 c-3 -10 -5 -2 -5 17 0 19 2 27 5 18 2 -10 2 -26 0 -35z
m-1077 3 c0 -7 -36 -30 -80 -50 -87 -40 -90 -40 -90 -26 0 8 152 90 167 90 2
0 3 -6 3 -14z m75 -135 l1 -73 -24 28 c-25 30 -21 17 8 -26 14 -20 17 -47 16
-138 l0 -114 -24 29 c-25 29 -21 15 8 -27 12 -17 17 -42 16 -80 -1 -52 -2 -55
-28 -57 -16 -1 -28 3 -28 8 0 6 5 7 10 4 12 -7 14 8 3 19 -5 4 -8 68 -8 143
l0 135 23 -29 c25 -29 21 -16 -8 27 -14 20 -17 47 -16 138 l0 114 24 -29 c26
-30 21 -15 -10 29 -10 14 -18 32 -18 39 0 8 12 -4 27 -26 24 -35 28 -50 28
-114z m673 122 c-15 -2 -42 -2 -60 0 -18 2 -6 4 27 4 33 0 48 -2 33 -4z m120
-10 c-15 -2 -42 -2 -60 0 -18 2 -6 4 27 4 33 0 48 -2 33 -4z m162 -9 c0 -2
-28 -3 -62 -3 -46 1 -55 3 -33 8 29 6 95 3 95 -5z m-1030 -7 c0 -7 -34 -29
-75 -50 -79 -39 -95 -43 -95 -27 0 6 131 76 168 89 1 1 2 -5 2 -12z m603 -14
c-26 -10 -12 -21 35 -28 81 -11 89 -15 101 -48 10 -29 10 -29 7 -5 -3 30 8 38
60 38 l34 0 2 -52 1 -53 7 50 7 50 3 -45 3 -45 4 43 c3 34 8 42 24 42 24 0 25
17 2 23 -14 3 -13 4 2 3 13 -1 21 -9 23 -25 2 -13 0 -21 -5 -18 -6 4 -10 -6
-10 -21 -1 -42 -20 -82 -41 -82 -58 0 -268 33 -274 43 -9 15 -11 121 -1 130 3
4 11 7 17 6 6 0 5 -3 -1 -6z m115 -10 c-16 -2 -40 -2 -55 0 -16 2 -3 4 27 4
30 0 43 -2 28 -4z m-718 -16 c0 -7 -38 -32 -85 -55 -53 -26 -85 -37 -85 -29 0
7 37 31 83 54 97 49 87 46 87 30z m833 6 c-13 -2 -33 -2 -45 0 -13 2 -3 4 22
4 25 0 35 -2 23 -4z m474 -80 c-2 -16 -4 -3 -4 27 0 30 2 43 4 28 2 -16 2 -40
0 -55z m-250 0 c-3 -10 -5 -2 -5 17 0 19 2 27 5 18 2 -10 2 -26 0 -35z m-1057
27 c0 -10 -27 -26 -113 -64 -85 -37 -72 -8 16 36 75 38 97 45 97 28z m0 -40
c0 -12 -160 -94 -168 -85 -10 10 16 28 86 61 75 36 82 38 82 24z m0 -40 c0 -8
-149 -90 -165 -90 -3 0 -5 4 -5 10 0 9 144 88 163 90 4 0 7 -4 7 -10z m167
-37 c-2 -16 -9 -27 -20 -29 -10 -1 -16 3 -14 9 3 7 10 11 16 9 7 -1 10 2 6 8
-3 5 -3 15 0 20 10 17 14 11 12 -17z m96 -4 c20 -11 37 -24 37 -29 0 -6 -22 1
-50 15 -27 14 -53 25 -57 25 -4 -1 18 -14 50 -31 31 -16 57 -34 57 -39 0 -6
-27 3 -59 20 -45 22 -59 35 -58 50 1 23 16 21 80 -11z m-263 -3 c0 -7 -33 -28
-72 -46 -98 -44 -98 -44 -98 -31 0 9 143 89 163 91 4 0 7 -6 7 -14z m297 -96
c-1 -15 -6 -19 -22 -14 -38 12 -95 44 -95 54 0 6 22 -1 50 -15 27 -14 53 -25
57 -25 4 1 -18 14 -49 31 -32 16 -58 34 -58 39 0 6 27 -3 59 -20 45 -22 59
-35 58 -50z m-297 57 c0 -7 -34 -29 -75 -50 -80 -39 -95 -43 -95 -27 0 8 134
79 168 89 1 1 2 -5 2 -12z m166 -37 c0 -37 -4 -47 -16 -45 -10 1 -15 14 -16
41 -2 46 0 51 19 51 10 0 14 -13 13 -47z m681 8 c-3 -8 -6 -5 -6 6 -1 11 2 17
5 13 3 -3 4 -12 1 -19z m-1180 -58 c1 -58 -2 -68 -13 -59 -8 7 -12 26 -10 52
2 36 13 77 20 77 2 0 3 -32 3 -70z m333 47 c0 -15 -156 -94 -166 -84 -10 9
-10 9 81 55 94 48 85 45 85 29z m299 -54 c2 -2 2 -5 -1 -8 -8 -8 -118 43 -118
55 0 7 87 -27 119 -47z m538 15 c-3 -7 -5 -2 -5 12 0 14 2 19 5 13 2 -7 2 -19
0 -25z m-250 -15 c-3 -10 -5 -4 -5 12 0 17 2 24 5 18 2 -7 2 -21 0 -30z m-593
-3 c-22 -20 -164 -78 -164 -67 0 16 164 98 169 85 2 -5 -1 -13 -5 -18z m305
-25 c2 -3 2 -7 -1 -10 -7 -7 -118 47 -118 57 0 7 107 -36 119 -47z m-131 17
c2 -6 -5 -9 -14 -8 -10 2 -20 8 -22 14 -2 6 5 9 14 8 10 -2 20 -8 22 -14z
m1062 14 c0 -2 -8 -10 -17 -17 -16 -13 -17 -12 -4 4 13 16 21 21 21 13z m65
-9 c-66 -26 -103 -68 -121 -139 l-14 -53 5 45 c9 75 88 162 145 159 8 0 1 -6
-15 -12z m-1050 -24 c30 -15 55 -31 55 -35 0 -4 -2 -8 -5 -8 -13 0 -115 55
-115 62 0 12 4 10 65 -19z m-245 -3 c0 -8 -149 -90 -165 -90 -3 0 -5 6 -5 14
0 7 35 29 78 49 85 39 92 41 92 27z m168 -10 c3 -7 0 -10 -6 -6 -6 3 -14 2
-17 -4 -4 -6 -1 -9 6 -8 6 2 14 -3 17 -11 2 -8 0 -11 -6 -7 -6 3 -14 2 -17 -4
-4 -6 -1 -9 6 -8 6 2 14 -3 16 -10 3 -7 1 -11 -4 -10 -4 2 -8 -1 -8 -7 0 -5 4
-9 8 -7 5 1 7 -3 5 -9 -2 -7 -11 -13 -19 -14 -12 -2 -15 10 -15 60 0 49 4 62
15 60 8 -1 17 -8 19 -15z m77 -17 c30 -15 55 -31 55 -35 0 -4 -2 -8 -5 -8 -13
0 -115 55 -115 62 0 12 4 10 65 -19z m1129 -76 c1 -32 -3 -53 -8 -50 -5 4 -7
-1 -3 -11 5 -11 3 -15 -5 -10 -7 5 -9 2 -5 -9 4 -11 -3 -23 -20 -37 -30 -23
-66 -19 -100 13 -64 57 -20 180 67 189 52 5 72 -18 74 -85z m-1707 -4 c-3 -97
-23 -91 -24 7 -1 65 2 78 12 70 9 -8 13 -33 12 -77z m1446 80 c-7 -2 -21 -2
-30 0 -10 3 -4 5 12 5 17 0 24 -2 18 -5z m55 -13 c-7 -10 -14 -17 -17 -15 -4
4 18 35 25 35 2 0 -1 -9 -8 -20z m-1168 0 c0 -8 -149 -90 -165 -90 -3 0 -5 4
-5 10 0 9 144 88 163 90 4 0 7 -4 7 -10z m245 -17 c30 -15 55 -31 55 -35 0 -4
-2 -8 -5 -8 -13 0 -115 55 -115 62 0 12 4 10 65 -19z m0 -30 c74 -36 70 -48
-5 -16 -33 15 -60 30 -60 35 0 12 4 11 65 -19z m853 15 c-6 -18 -28 -21 -28
-4 0 9 7 16 16 16 9 0 14 -5 12 -12z m-1098 -11 c0 -11 -71 -48 -162 -85 -4
-2 -8 1 -8 7 0 9 143 89 163 91 4 0 7 -6 7 -13z m1146 -22 c-9 -44 7 -102 40
-151 19 -27 21 -34 8 -24 -30 24 -42 42 -54 87 -11 38 -6 123 7 123 3 0 2 -16
-1 -35z m-902 -9 c43 -19 55 -29 53 -45 -1 -24 -16 -22 -79 10 -25 13 -36 25
-35 39 1 11 2 20 4 20 1 0 27 -11 57 -24z m792 -2 c51 -7 64 -17 64 -46 0 -16
-12 -18 -103 -18 l-104 0 36 40 c20 22 41 38 47 36 6 -3 33 -8 60 -12z m351
-6 c-3 -8 -6 -5 -6 6 -1 11 2 17 5 13 3 -3 4 -12 1 -19z m-1387 -2 c0 -16 -94
-59 -118 -53 -11 2 7 16 48 35 77 37 70 35 70 18z m167 -9 c-4 -12 -37 -19
-37 -8 0 12 9 18 25 18 9 0 14 -5 12 -10z m70 -43 c-7 -8 -57 15 -57 26 0 6
13 4 31 -5 17 -9 29 -19 26 -21z m-237 11 c0 -10 -10 -15 -27 -15 l-28 1 25
14 c31 18 30 18 30 0z m167 2 c-4 -12 -37 -19 -37 -8 0 12 9 18 25 18 9 0 14
-5 12 -10z m1035 -64 c11 -18 17 -33 15 -33 -9 0 -47 67 -46 81 0 11 2 10 6
-1 3 -8 14 -30 25 -47z"/>
<path d="M2037 3418 c-24 -29 -48 -64 -52 -78 -3 -14 -9 -34 -12 -45 -6 -23
73 50 139 128 l40 47 -35 0 c-30 0 -42 -8 -80 -52z"/>
<path d="M2076 3354 c-60 -63 -105 -114 -100 -115 5 0 51 -4 102 -7 l93 -7
115 123 116 122 -109 -1 -108 -1 -109 -114z"/>
<path d="M2370 3403 c-36 -38 -90 -94 -120 -125 l-54 -58 36 0 c33 0 44 8 127
100 64 70 91 108 91 125 0 14 -3 25 -8 25 -4 0 -37 -30 -72 -67z"/>
<path d="M2532 3380 c-12 -16 -22 -37 -22 -47 1 -14 6 -12 26 12 14 17 29 38
35 48 17 30 -15 20 -39 -13z"/>
<path d="M2548 3338 c-53 -73 -69 -124 -42 -135 10 -4 22 0 29 10 7 10 18 17
26 17 8 0 34 28 58 61 24 33 46 58 48 55 3 -3 -9 -24 -28 -48 -18 -24 -37 -48
-42 -55 -6 -9 -1 -14 17 -19 42 -10 67 27 64 96 -3 51 -5 56 -33 67 -46 18
-48 17 -97 -49z"/>
<path d="M1425 3076 c10 -14 19 -26 22 -26 7 0 -17 39 -28 46 -6 3 -3 -5 6
-20z"/>
<path d="M1420 3041 c5 -11 15 -23 21 -27 6 -3 3 5 -6 20 -20 30 -30 35 -15 7z"/>
<path d="M1410 2977 c0 -5 9 -20 20 -34 11 -14 20 -22 20 -17 -1 12 -39 61
-40 51z"/>
<path d="M1410 2934 c1 -12 39 -61 40 -51 0 5 -9 20 -20 34 -11 14 -20 22 -20
17z"/>
<path d="M1425 2826 c10 -14 19 -26 22 -26 7 0 -17 39 -28 46 -6 3 -3 -5 6
-20z"/>
<path d="M1419 2792 c6 -12 16 -24 22 -28 8 -4 8 -1 0 14 -6 12 -16 24 -22 28
-8 4 -8 1 0 -14z"/>
<path d="M1410 2727 c0 -5 9 -20 20 -34 11 -14 20 -22 20 -17 -1 12 -39 61
-40 51z"/>
<path d="M1410 2685 c0 -4 9 -18 20 -32 11 -14 20 -22 20 -18 0 4 -9 18 -20
32 -11 14 -20 22 -20 18z"/>
<path d="M1410 2644 c1 -12 39 -61 40 -51 0 5 -9 20 -20 34 -11 14 -20 22 -20
17z"/>
<path d="M1976 3083 c-13 -14 -5 -41 14 -46 23 -6 24 -3 9 25 -7 13 -7 18 -1
14 6 -3 13 -3 16 2 5 9 -29 14 -38 5z"/>
<path d="M2020 3070 c-17 -11 -7 -24 27 -35 20 -6 22 -4 14 16 -9 27 -21 32
-41 19z"/>
<path d="M2080 3058 c0 -7 5 -20 10 -28 8 -12 10 -9 10 13 0 15 -4 27 -10 27
-5 0 -10 -6 -10 -12z"/>
<path d="M2146 3043 c10 -40 14 -41 14 -5 0 18 -5 32 -10 32 -6 0 -8 -11 -4
-27z"/>
<path d="M2171 3048 c-1 -15 4 -30 9 -33 12 -7 12 12 0 40 -8 18 -9 17 -9 -7z"/>
<path d="M2198 3023 c7 -65 12 -67 12 -5 0 29 -4 52 -9 52 -5 0 -6 -21 -3 -47z"/>
<path d="M2263 3025 c0 -22 2 -30 4 -17 2 12 2 30 0 40 -3 9 -5 -1 -4 -23z"/>
<path d="M1524 2850 c0 -16 3 -27 6 -25 8 5 6 42 -1 50 -3 2 -5 -8 -5 -25z"/>
<path d="M2710 2736 c0 -2 8 -10 18 -17 15 -13 16 -12 3 4 -13 16 -21 21 -21
13z"/>
<path d="M2621 2684 c-24 -30 -26 -55 -10 -87 16 -30 30 -37 59 -30 41 10 60
33 60 74 0 58 -54 77 -80 28 -14 -25 -12 -73 2 -87 9 -9 9 -12 0 -12 -16 0
-32 33 -32 65 0 14 11 37 25 50 15 16 19 25 10 25 -7 0 -23 -12 -34 -26z m82
-20 c-7 -3 -10 -11 -7 -18 3 -7 -4 -21 -16 -31 -20 -18 -20 -18 -20 12 0 35 6
43 34 42 12 0 16 -3 9 -5z m17 -38 c0 -2 -8 -10 -17 -17 -16 -13 -17 -12 -4 4
13 16 21 21 21 13z"/>
<path d="M2709 2553 c-13 -16 -12 -17 4 -4 9 7 17 15 17 17 0 8 -8 3 -21 -13z"/>
<path d="M1610 2625 c25 -13 50 -24 55 -24 6 0 -10 11 -35 24 -25 13 -49 24
-55 24 -5 0 10 -11 35 -24z"/>
<path d="M2860 3711 c0 -5 -2 -16 -5 -23 -4 -10 6 -18 33 -26 52 -16 125 -55
173 -94 48 -39 114 -135 131 -190 11 -39 52 -78 65 -64 12 11 -16 98 -52 162
-19 34 -61 85 -92 114 -80 73 -253 156 -253 121z"/>
<path d="M1701 3437 c-103 -155 -131 -210 -131 -255 0 -56 27 -95 80 -116 52
-21 75 -20 128 4 53 24 77 72 66 134 -6 38 -89 262 -103 278 -3 4 -21 -17 -40
-45z m-98 -226 c-4 -27 0 -46 13 -66 31 -47 115 -70 167 -44 19 9 19 8 -3 -11
-21 -18 -34 -21 -79 -18 -47 4 -59 10 -88 41 -36 39 -39 56 -22 106 15 41 18
39 12 -8z"/>
<path d="M3335 3116 c22 -7 56 -16 75 -19 33 -6 33 -6 -5 7 -22 7 -56 16 -75
19 -33 6 -33 6 5 -7z"/>
<path d="M1057 3103 c-18 -17 -6 -49 23 -60 30 -11 30 -11 30 22 0 36 -32 60
-53 38z"/>
<path d="M1040 3011 c-14 -28 -14 -129 1 -114 8 8 23 6 56 -8 25 -10 47 -19
49 -19 2 0 4 28 4 63 0 63 0 63 -35 80 -46 22 -62 21 -75 -2z"/>
<path d="M2710 2951 c0 -15 8 -21 33 -24 l32 -4 -32 -1 c-22 -1 -33 -7 -33
-17 0 -11 12 -15 51 -15 l50 0 -3 38 c-3 37 -3 37 -50 40 -42 3 -48 1 -48 -17z"/>
<path d="M2040 2921 c0 -20 110 -33 117 -13 3 8 -6 12 -25 12 -16 0 -44 3 -61
6 -20 4 -31 2 -31 -5z"/>
<path d="M2820 2901 c0 -29 22 -51 49 -51 33 0 41 -14 41 -71 0 -34 3 -39 23
-39 12 0 39 -3 61 -7 36 -6 38 -5 31 16 -10 31 3 77 31 110 l24 29 -63 6 c-34
3 -92 8 -129 12 -49 5 -68 3 -68 -5z"/>
<path d="M2665 2863 l-30 -16 48 -13 c27 -7 58 -21 69 -31 25 -22 57 -90 58
-120 0 -20 5 -23 40 -23 42 0 54 14 20 25 -11 3 -20 11 -20 18 0 8 3 8 12 -1
30 -30 39 -14 36 61 -3 66 -5 72 -25 75 -21 3 -23 -1 -23 -42 0 -35 5 -49 20
-58 11 -7 20 -16 20 -21 0 -4 -11 0 -24 8 -18 12 -24 27 -29 73 -4 37 -12 61
-23 69 -25 18 -113 15 -149 -4z m216 -60 c13 -16 12 -17 -3 -4 -17 13 -22 21
-14 21 2 0 10 -8 17 -17z m9 -45 c0 -6 -6 -5 -15 2 -8 7 -15 14 -15 16 0 2 7
1 15 -2 8 -4 15 -11 15 -16z"/>
<path d="M2170 2713 c0 -5 9 -18 19 -27 17 -16 24 -16 58 -5 32 10 35 13 18
20 -11 4 -28 8 -39 8 -15 1 -16 -2 -6 -14 19 -23 -1 -18 -27 7 -13 12 -23 17
-23 11z"/>
<path d="M2286 2672 l-19 -27 24 22 c12 12 21 24 18 27 -2 2 -13 -8 -23 -22z"/>
<path d="M2369 2323 c-35 -19 -64 -43 -84 -71 -28 -40 -30 -50 -30 -130 0 -80
2 -91 29 -130 55 -81 158 -118 253 -91 58 16 123 78 140 132 l11 37 -46 0
c-42 -1 -49 -4 -67 -33 -23 -37 -87 -64 -127 -54 -42 11 -87 55 -99 98 -31
100 59 199 158 174 15 -3 41 -22 59 -41 27 -28 40 -34 73 -34 52 0 54 21 8 82
-67 89 -175 112 -278 61z"/>
<path d="M2813 2331 c-66 -30 -92 -105 -59 -170 17 -31 58 -54 138 -77 66 -18
90 -37 81 -62 -10 -27 -35 -41 -70 -42 -32 0 -73 28 -73 50 0 6 -23 10 -51 10
-43 0 -50 -3 -45 -16 3 -9 6 -22 6 -29 0 -26 59 -81 98 -93 55 -17 100 -15
147 7 64 29 80 54 80 122 0 77 -23 100 -135 137 -77 24 -85 30 -88 54 -3 22 2
29 21 33 43 11 81 2 92 -22 8 -19 18 -23 58 -23 49 0 49 0 43 28 -23 96 -139
140 -243 93z"/>
<path d="M3633 2331 c-66 -30 -92 -105 -59 -170 17 -31 58 -54 138 -77 66 -18
90 -37 81 -62 -10 -27 -35 -41 -70 -42 -32 0 -73 28 -73 50 0 6 -23 10 -51 10
-43 0 -50 -3 -45 -16 3 -9 6 -22 6 -29 0 -26 59 -81 98 -93 55 -17 100 -15
147 7 64 29 80 54 80 122 0 77 -23 100 -135 137 -77 24 -85 30 -88 54 -3 22 2
29 21 33 43 11 81 2 92 -22 8 -19 18 -23 58 -23 49 0 49 0 43 28 -23 96 -139
140 -243 93z"/>
<path d="M1253 2323 c-3 -10 -42 -108 -85 -217 -43 -110 -78 -201 -78 -203 0
-2 22 -3 49 -3 48 0 49 1 65 40 l16 40 90 0 89 0 12 -40 12 -40 54 0 53 0 -17
43 c-9 23 -49 121 -88 217 l-71 175 -47 3 c-38 3 -48 0 -54 -15z m85 -179 c12
-34 22 -64 22 -68 0 -3 -25 -6 -55 -6 l-54 0 27 75 c15 41 29 71 33 67 3 -4
15 -34 27 -68z"/>
<path d="M1590 2120 l0 -220 130 0 130 0 0 45 0 45 -85 0 -85 0 0 175 0 175
-45 0 -45 0 0 -220z"/>
<path d="M1920 2120 l0 -220 135 0 135 0 0 45 0 45 -90 0 -90 0 0 45 0 45 75
0 75 0 0 45 0 45 -75 0 -75 0 0 40 0 40 85 0 85 0 0 45 0 45 -130 0 -130 0 0
-220z"/>
<path d="M3122 2318 c8 -13 42 -71 76 -129 l62 -106 0 -91 0 -92 50 0 50 0 0
89 0 89 75 127 c41 69 75 128 75 131 0 2 -22 4 -49 4 l-49 0 -48 -85 c-29 -53
-51 -82 -57 -76 -5 5 -28 42 -51 83 l-42 73 -53 3 -54 3 15 -23z"/>
<path d="M2293 1693 c-10 -28 -10 -30 13 -25 28 5 29 11 11 37 -13 17 -15 16
-24 -12z m22 -3 c3 -5 1 -10 -4 -10 -6 0 -11 5 -11 10 0 6 2 10 4 10 3 0 8 -4
11 -10z"/>
<path d="M2398 1713 c7 -3 16 -2 19 1 4 3 -2 6 -13 5 -11 0 -14 -3 -6 -6z"/>
<path d="M2471 1688 c0 -18 3 -27 6 -19 5 11 7 11 14 0 6 -10 8 -7 6 8 0 12
-5 19 -9 17 -4 -3 -8 -1 -8 5 0 5 6 12 13 14 7 3 5 6 -5 6 -14 1 -18 -7 -17
-31z"/>
<path d="M2560 1705 c0 -8 5 -15 10 -15 6 0 10 7 10 15 0 8 -4 15 -10 15 -5 0
-10 -7 -10 -15z"/>
<path d="M2605 1698 c11 -36 22 -41 17 -8 -2 16 -9 30 -14 30 -5 0 -6 -10 -3
-22z"/>
<path d="M2676 1713 c-4 -4 3 -16 16 -26 l23 -19 -24 6 c-17 3 -21 2 -13 -6
12 -12 42 -4 42 11 0 5 -10 13 -22 17 -22 7 -22 7 -3 15 14 5 16 8 4 8 -9 1
-19 -2 -23 -6z"/>
<path d="M510 1680 l0 -30 215 0 c198 0 218 -2 243 -20 34 -24 1363 -663 1415
-680 25 -8 76 -11 140 -8 l102 4 690 332 c380 183 702 342 717 352 25 18 44
20 243 20 l215 0 0 30 0 30 -520 0 -520 0 0 -30 0 -30 173 -2 174 -3 -606
-295 -606 -294 -85 0 -85 0 -605 294 -606 295 173 3 173 2 0 30 0 30 -520 0
-520 0 0 -30z m1209 -356 c457 -221 691 -328 727 -335 36 -7 72 -7 108 0 37 7
268 113 728 336 484 233 683 325 708 325 32 0 33 -1 15 -13 -50 -33 -1366
-661 -1410 -673 -64 -17 -127 -17 -190 0 -43 11 -1072 502 -1340 639 -83 43
-87 46 -55 46 27 1 204 -81 709 -325z"/>
<path d="M2587 1683 c-4 -3 -7 -11 -7 -17 0 -6 5 -5 12 2 6 6 9 14 7 17 -3 3
-9 2 -12 -2z"/>
</g>
</svg>
